<?xml version="1.0" standalone="no"?>
<!DOCTYPE svg PUBLIC "-//W3C//DTD SVG 20010904//EN"
 "http://www.w3.org/TR/2001/REC-SVG-20010904/DTD/svg10.dtd">
<svg version="1.0" xmlns="http://www.w3.org/2000/svg"
 width="285.000000pt" height="285.000000pt" viewBox="0 0 285.000000 285.000000"
 preserveAspectRatio="xMidYMid meet">
<metadata>
Created by potrace 1.14, written by Peter Selinger 2001-2017
</metadata>
<g transform="translate(0.000000,285.000000) scale(0.100000,-0.100000)"
fill="#000000" stroke="none">
<path d="M0 1425 l0 -1425 1425 0 1425 0 0 1425 0 1425 -1425 0 -1425 0 0
-1425z m1825 1206 c352 -35 671 -302 775 -649 33 -113 42 -226 29 -387 -17
-224 -80 -420 -210 -652 -27 -49 -157 -211 -212 -264 -109 -105 -229 -191
-372 -264 -81 -41 -155 -75 -164 -75 -9 0 -50 -12 -91 -26 -122 -41 -305 -53
-853 -54 l-478 0 4 668 c5 708 5 719 56 887 69 231 255 479 465 621 146 99
370 180 536 193 134 11 408 12 515 2z"/>
<path d="M1362 1885 c-169 -38 -292 -157 -347 -335 -19 -64 -32 -399 -18 -464
17 -77 90 -99 257 -77 118 16 197 42 290 97 202 118 336 343 336 563 0 101
-25 154 -94 196 -49 30 -51 30 -205 32 -106 2 -176 -2 -219 -12z"/>
</g>
</svg>
